<svg xmlns="http://www.w3.org/2000/svg" viewBox="0 0 795.06 218.78"><defs><style>.cls-1{fill:#fff;}.cls-2{fill:#f79320;}</style></defs><title>limos4 beli</title><g id="Layer_2" data-name="Layer 2"><g id="Layer_1-2" data-name="Layer 1"><polygon class="cls-1" points="228.46 164.4 233.09 164.4 233.09 159.78 233.09 58.85 233.09 54.24 228.46 54.24 222.35 54.24 217.72 54.24 217.72 58.85 217.72 159.78 217.72 164.4 222.35 164.4 228.46 164.4"/><polygon class="cls-1" points="269.25 164.4 273.86 164.4 273.86 159.78 273.86 86.27 307.24 150.91 308.51 153.43 311.34 153.43 314.11 153.43 316.93 153.43 318.21 150.91 351.31 86.33 351.43 159.78 351.43 164.4 356.03 164.4 361.86 164.4 366.48 164.4 366.48 159.78 366.48 58.85 366.48 54.24 361.86 54.24 353.42 54.24 350.6 54.24 349.3 56.76 312.77 128.16 275.96 56.74 274.69 54.24 271.86 54.24 263.43 54.24 258.8 54.24 258.8 58.85 258.8 159.78 258.8 164.4 263.43 164.4 269.25 164.4"/><path class="cls-1" d="M479.23,148.42a53.85,53.85,0,0,0,0-78.27,59.1,59.1,0,0,0-81,0,53.87,53.87,0,0,0,0,78.27,58.91,58.91,0,0,0,81,0m-82.31-39.17c0-22.06,18.77-40,41.84-40s41.82,17.93,41.82,40-18.76,40.13-41.82,40.13-41.84-18-41.84-40.13"/><path class="cls-1" d="M568,110.32c-6.64-4.7-15-7.22-23.22-9.68-15.16-4.54-24.44-7.89-24.44-18.53,0-9.27,11.86-12.56,22-12.56a46.78,46.78,0,0,1,24.15,6.62l4.31,2.8,2.32-4.58,2.77-5.5,1.94-3.69-3.49-2.27a61.32,61.32,0,0,0-31.63-9c-10.86,0-20.18,2.55-27,7.38a25.5,25.5,0,0,0-11.14,21.28,26.75,26.75,0,0,0,11.92,23.22c6.54,4.53,14.82,7,22.81,9.38,15.48,4.61,24.94,8,24.82,19.2,0,10.85-12.44,14.72-24.07,14.72a43.66,43.66,0,0,1-29.89-12.32l-4.18-4.3L503,137.66,499.8,143l-1.93,3.13,2.61,2.56A58.53,58.53,0,0,0,540,164.57c23.92,0,40-12.17,40-30.3a27.49,27.49,0,0,0-12-24"/><path class="cls-2" d="M794.79,69.76C789.41,32.69,706.07,7.63,587.18,1.44A1325.19,1325.19,0,0,0,398.91,6.05c-46.44,4.27-90.48,10.52-131,18.24l4.47,1.65c26.2-3.87,53.52-7.28,81.69-9.87,79.82-7.37,154.8-7.84,217.66-2.63C674.76,22,745,45.84,749.93,79.79c3.87,27.09-34.6,55.57-100.17,79.72V135.66h16v-15.3h-16v-30h-15v30H604.56l34-59.21,4-6.93H625.67l-1.33,2.33-38.16,66.27-.62,1.06v11.78h49.07v32.28l15-3.87c92.39-26.7,149.87-61.49,145.11-94.31"/><path class="cls-1" d="M441,202.6c-43.56,4-85.66,6-125.16,6.09-151.58.43-264.43-26.47-270.72-69.81-3.86-27.09,34.39-55.4,99.64-79.53V164.4H205.4V149.21H160.1V50.53l-15.34,4.24C52.75,81.49-4.48,116.2.28,149,7,195.4,135.84,222.91,303.58,218.27c29.78-.83,60.79-2.67,92.55-5.59,46.43-4.28,90.48-10.53,131-18.25l-4.47-1.65c-26.18,3.9-53.55,7.23-81.67,9.82"/></g></g></svg>